<svg width="111" height="140" viewBox="0 0 111 140" fill="none" xmlns="http://www.w3.org/2000/svg">
<path d="M0 136.934V2.59766H45.459C71.8066 2.59766 89.0625 16.4209 89.248 36.9238C89.1553 50.9326 80.9912 60.8594 66.7969 65.498V66.2402C85.0732 70.6934 95.6494 82.29 95.7422 99.082C95.6494 121.812 76.8164 136.934 48.0566 136.934H0ZM46.3867 115.225C61.5088 115.132 70.3223 108.081 70.3223 96.1133C70.3223 84.1455 61.1377 77.0947 45.459 77.002H22.8223V115.225H46.3867ZM42.8613 56.7773C56.7773 56.7773 64.8486 50.6543 64.9414 40.2637C64.8486 29.7803 57.1484 23.6572 43.9746 23.5645H22.8223V56.7773H42.8613Z" fill="black"/>
</svg>
