<svg width="105" height="140" viewBox="0 0 105 140" fill="none" xmlns="http://www.w3.org/2000/svg">
<path d="M4.45703 81.4551L12.0645 2.41211H92.9629V23.75H32.8457L28.9492 62.1582H29.877C37.1133 53.5303 47.5039 48.6133 59.1934 48.6133C81.5518 48.6133 101.962 66.5186 101.869 93.3301C101.962 120.42 80.9951 139.531 51.7715 139.531C28.5781 139.531 9.37402 127.378 0.560547 107.061L22.084 98.7109C27.7432 111.792 38.1338 118.75 51.5859 118.75C67.7285 118.75 78.583 108.638 78.4902 93.5156C78.583 78.3936 67.7285 68.2812 51.7715 68.2812C40.5459 68.2812 31.8252 73.291 27.6504 81.4551H4.45703Z" fill="black"/>
</svg>
