<svg width="136" height="140" viewBox="0 0 136 140" fill="none" xmlns="http://www.w3.org/2000/svg">
<path d="M71.3613 139.531C31.1904 139.531 0.946289 109.473 0.853516 69.7656C0.946289 30.0586 31.0977 0 70.9902 0C93.4414 0 112.646 9.46289 124.984 25.4199L106.43 39.5215C97.4307 27.7393 85.5557 22.5439 70.9902 22.4512C43.9932 22.5439 24.8818 42.0264 24.9746 69.7656C24.8818 97.5049 44.0859 116.987 71.3613 117.08C92.9775 116.987 107.821 104.927 111.068 85.9082H74.8867V65.6836H134.447C135.097 69.4873 135.468 73.3838 135.561 77.373C135.468 114.019 108.563 139.531 71.3613 139.531Z" fill="black"/>
</svg>
