<svg width="103" height="140" viewBox="0 0 103 140" fill="none" xmlns="http://www.w3.org/2000/svg">
<path d="M52.3503 139.531C27.4871 139.531 9.76733 127.471 1.1394 105.947L23.0339 98.3398C28.6931 111.978 38.5271 118.75 51.9792 118.75C67.8435 118.75 78.9763 109.658 79.0691 97.2266C78.9763 83.8672 66.1736 75.7959 45.2996 75.8887H40.8464V57.334H45.2996C63.4832 57.2412 74.3376 50.5615 74.4304 39.1504C74.3376 28.4814 65.0603 20.7812 51.7937 20.7812C40.0115 20.7812 31.198 26.8115 26.5593 38.2227L4.66479 30.8008C12.7361 10.6689 29.9919 0 52.1648 0C78.698 0 98.0876 15.4004 97.9949 36.5527C98.0876 51.0254 88.9958 61.2305 72.7605 66.2402V66.6113C91.8718 72.1777 102.912 83.96 102.819 100.195C102.912 123.018 81.4812 139.531 52.3503 139.531Z" fill="black"/>
</svg>
